<svg version="1.0" role="img" class="icon icon-speaker" xmlns="http://www.w3.org/2000/svg" viewBox="0 0 24 24" height="1.25rem" width="1.25rem" fill="none" aria-hidden="true" focusable="false" stroke="currentColor" stroke-width="2" stroke-linecap="round" stroke-linejoin="round">
  <path d="M11 4.702 A0.705 0.705 0 0 0 9.797 4.204 L6.413 7.587 A1.4 1.4 0 0 1 5.416 8 L3 8 A1 1 0 0 0 2 9 L2 15 A1 1 0 0 0 3 16 L5.416 16 A1.4 1.4 0 0 1 6.413 16.413 L9.796 19.797 A0.705 0.705 0 0 0 11 19.298 Z"/>
  <path d="M16 9 A5 5 0 0 1 16 15"/>
  <path d="M19.364 18.364 A9 9 0 0 0 19.364 5.636"/>
</svg>